<svg width="253" height="42" viewBox="0 0 253 42" fill="none" xmlns="http://www.w3.org/2000/svg">
<path d="M51.0762 7.40625H54.4688V30.2402H67.0898V7.40625H70.4648V30.1699H73.1543L72.8379 39.1699H69.7969V33H51.0762V7.40625ZM84.6855 33.3516C82.1074 33.3516 80.0098 32.5078 78.3926 30.8203C76.7754 29.1211 75.9668 26.8535 75.9668 24.0176V23.4199C75.9668 21.5332 76.3242 19.8516 77.0391 18.375C77.7656 16.8867 78.7734 15.7266 80.0625 14.8945C81.3633 14.0508 82.7695 13.6289 84.2812 13.6289C86.7539 13.6289 88.6758 14.4434 90.0469 16.0723C91.418 17.7012 92.1035 20.0332 92.1035 23.0684V24.4219H79.2188C79.2656 26.2969 79.8105 27.8145 80.8535 28.9746C81.9082 30.123 83.2441 30.6973 84.8613 30.6973C86.0098 30.6973 86.9824 30.4629 87.7793 29.9941C88.5762 29.5254 89.2734 28.9043 89.8711 28.1309L91.8574 29.6777C90.2637 32.127 87.873 33.3516 84.6855 33.3516ZM84.2812 16.3008C82.9688 16.3008 81.8672 16.7812 80.9766 17.7422C80.0859 18.6914 79.5352 20.0273 79.3242 21.75H88.8516V21.5039C88.7578 19.8516 88.3125 18.5742 87.5156 17.6719C86.7188 16.7578 85.6406 16.3008 84.2812 16.3008ZM111.422 33H108.17V24.8789H99.4336V33H96.1641V13.9805H99.4336V22.2246H108.17V13.9805H111.422V33ZM130.793 16.6172H124.412V33H121.16V16.6172H114.902V13.9805H130.793V16.6172ZM150.023 23.7012C150.023 26.5957 149.361 28.9277 148.037 30.6973C146.713 32.4668 144.92 33.3516 142.658 33.3516C140.35 33.3516 138.533 32.6191 137.209 31.1543V40.3125H133.957V13.9805H136.928L137.086 16.0898C138.41 14.4492 140.25 13.6289 142.605 13.6289C144.891 13.6289 146.695 14.4902 148.02 16.2129C149.355 17.9355 150.023 20.332 150.023 23.4023V23.7012ZM146.771 23.332C146.771 21.1875 146.314 19.4941 145.4 18.252C144.486 17.0098 143.232 16.3887 141.639 16.3887C139.67 16.3887 138.193 17.2617 137.209 19.0078V28.0957C138.182 29.8301 139.67 30.6973 141.674 30.6973C143.232 30.6973 144.469 30.082 145.383 28.8516C146.309 27.6094 146.771 25.7695 146.771 23.332Z" fill="#515151"/>
<path d="M154.857 7.40625H157.037V31.1719H171.521V7.40625H173.684V31.1367H176.197L176.039 39.1699H174.035V33H154.857V7.40625ZM180.381 33V13.9805H187.359C189.773 13.9805 191.625 14.4141 192.914 15.2812C194.203 16.1367 194.848 17.3965 194.848 19.0605C194.848 20.0098 194.561 20.8594 193.986 21.6094C193.412 22.3477 192.574 22.8867 191.473 23.2266C192.715 23.4609 193.711 23.9941 194.461 24.8262C195.223 25.6582 195.604 26.625 195.604 27.7266C195.604 29.4023 194.982 30.7031 193.74 31.6289C192.51 32.543 190.764 33 188.502 33H180.381ZM182.473 24.2461V31.2422H188.572C190.154 31.2422 191.373 30.9375 192.229 30.3281C193.084 29.7188 193.512 28.8398 193.512 27.6914C193.512 26.6367 193.084 25.7988 192.229 25.1777C191.373 24.5566 190.154 24.2461 188.572 24.2461H182.473ZM182.473 22.4883H187.799C191.104 22.4414 192.756 21.3164 192.756 19.1133C192.756 17.9531 192.299 17.1094 191.385 16.582C190.482 16.043 189.141 15.7734 187.359 15.7734H182.473V22.4883ZM207.662 33.3516C206.045 33.3516 204.58 32.9531 203.268 32.1562C201.967 31.3594 200.953 30.252 200.227 28.834C199.5 27.4043 199.137 25.8047 199.137 24.0352V23.2793C199.137 21.4512 199.488 19.8047 200.191 18.3398C200.906 16.875 201.896 15.7266 203.162 14.8945C204.428 14.0508 205.799 13.6289 207.275 13.6289C209.584 13.6289 211.412 14.4199 212.76 16.002C214.119 17.5723 214.799 19.7227 214.799 22.4531V23.6309H201.229V24.0352C201.229 26.1914 201.844 27.9902 203.074 29.4316C204.316 30.8613 205.875 31.5762 207.75 31.5762C208.875 31.5762 209.865 31.3711 210.721 30.9609C211.588 30.5508 212.373 29.8945 213.076 28.9922L214.395 29.9941C212.848 32.2324 210.604 33.3516 207.662 33.3516ZM207.275 15.4219C205.693 15.4219 204.357 16.002 203.268 17.1621C202.189 18.3223 201.533 19.8809 201.299 21.8379H212.707V21.6094C212.648 19.7812 212.127 18.293 211.143 17.1445C210.158 15.9961 208.869 15.4219 207.275 15.4219ZM232.342 15.7734H225.416V33H223.307V15.7734H216.645V13.9805H232.342V15.7734ZM247.529 33C247.318 32.4023 247.184 31.5176 247.125 30.3457C246.387 31.3066 245.443 32.0508 244.295 32.5781C243.158 33.0938 241.951 33.3516 240.674 33.3516C238.846 33.3516 237.363 32.8418 236.227 31.8223C235.102 30.8027 234.539 29.5137 234.539 27.9551C234.539 26.1035 235.307 24.6387 236.842 23.5605C238.389 22.4824 240.539 21.9434 243.293 21.9434H247.107V19.7812C247.107 18.4219 246.686 17.3555 245.842 16.582C245.01 15.7969 243.791 15.4043 242.186 15.4043C240.721 15.4043 239.508 15.7793 238.547 16.5293C237.586 17.2793 237.105 18.1816 237.105 19.2363L234.996 19.2188C234.996 17.707 235.699 16.4004 237.105 15.2988C238.512 14.1855 240.24 13.6289 242.291 13.6289C244.412 13.6289 246.082 14.1621 247.301 15.2285C248.531 16.2832 249.164 17.7598 249.199 19.6582V28.6582C249.199 30.498 249.393 31.875 249.779 32.7891V33H247.529ZM240.92 31.4883C242.326 31.4883 243.58 31.1484 244.682 30.4688C245.795 29.7891 246.604 28.8809 247.107 27.7441V23.5605H243.346C241.248 23.584 239.607 23.9707 238.424 24.7207C237.24 25.459 236.648 26.4785 236.648 27.7793C236.648 28.8457 237.041 29.7305 237.826 30.4336C238.623 31.1367 239.654 31.4883 240.92 31.4883Z" fill="#E30000"/>
<line x1="142" y1="41" x2="249" y2="41" stroke="#515151" stroke-width="2"/>
<path d="M10.0833 15.4167C5.53333 19.9667 5.53333 27.3333 10.05 31.8833C12.5 26.2167 16.8667 21.4833 22.3167 18.6667C17.7 22.5667 14.4667 28.0167 13.3333 34.2C17.6667 36.25 23 35.5 26.5833 31.9167C32.3833 26.1167 33.3333 8.66666 33.3333 8.66666C33.3333 8.66666 15.8833 9.61666 10.0833 15.4167Z" fill="#E7D000"/>
</svg>
